# xmcd CD database file
#
# Track frame offsets:
#	150
#	20454
#	35978
#	55828
#	76663
#	100555
#	112220
#	138006
#	168262
#	189104
#	205470
#	215194
#	231631
#	242861
#	260982
#	286316
#	305212
#	329741
#
# Disc length: 4775 seconds
#
# Revision: 0
# Processed by: cddbd v1.5.2PL0 Copyright (c) Steve Scherf et al.
# Submitted via: CDex 1.70beta2
#
DISCID=1812a512
DTITLE=Various Artist - Instrumental - The 2nd Smooth Jazz Avenue
DYEAR=2007
DGENRE=Jazz
TTITLE0=Miles Davis - Human Nature
TTITLE1=Nick Kepics - Promoses Lost
TTITLE2=Miles Davis - It Aint Necessairly So
TTITLE3=Danny Green Quintet - Past Due
TTITLE4=Eliane Elias - A House Is Not A Home
TTITLE5=Chuck Henry - Prelude In E Minor
TTITLE6=Frank Willfane - Lost Love
TTITLE7=Danny Green Trio - Gente Boa
TTITLE8=Richar Bona and Pat Metheny - Reverence
TTITLE9=Glenn Miller - In The Mood
TTITLE10=Perez Padro - Mambo No. 5
TTITLE11=Benny Goodman - Lovre Me Or Leave Me
TTITLE12=Duke Ellington - All Of ME
TTITLE13=Birelli Lagrene - Isn't She Lovely
TTITLE14=Nathan Aronov - Cafe Blanc
TTITLE15=Pierro Herbineaux - Slipery Sally
TTITLE16=Stefan S. Stefanson - High Walk
TTITLE17=DKO - Ballad For Rick
EXTD=YEAR: 2007
EXTT0=
EXTT1=
EXTT2=
EXTT3=
EXTT4=
EXTT5=
EXTT6=
EXTT7=
EXTT8=
EXTT9=
EXTT10=
EXTT11=
EXTT12=
EXTT13=
EXTT14=
EXTT15=
EXTT16=
EXTT17=
PLAYORDER=
